<?xml version="1.0" encoding="UTF-8"?>
<svg id="_レイヤー_4" data-name="レイヤー 4" xmlns="http://www.w3.org/2000/svg" viewBox="0 0 1920 1080">
  <defs>
    <style>
      .cls-1 {
        fill: #099;
      }

      .cls-2 {
        fill: #fff;
      }

      .cls-3 {
        fill: #c36;
      }

      .cls-4 {
        fill: #369;
      }

      .cls-5 {
        fill: #003;
      }

      .cls-6 {
        fill: #969;
      }

      .cls-7 {
        fill: none;
      }
    </style>
  </defs>
  <rect class="cls-7" x="460" y="40" width="1000" height="1000"/>
  <circle class="cls-7" cx="960" cy="540" r="500"/>
  <rect class="cls-5" x="510" y="90" width="900" height="200"/>
  <rect class="cls-5" x="425" y="530" width="720" height="200" transform="translate(155 1415) rotate(-90)"/>
  <rect class="cls-3" x="885" y="315" width="500" height="150" rx="30" ry="30"/>
  <rect class="cls-6" x="885" y="490" width="500" height="150" rx="30" ry="30"/>
  <rect class="cls-4" x="885" y="665" width="500" height="150" rx="30" ry="30"/>
  <rect class="cls-1" x="886" y="840" width="500" height="150" rx="30" ry="30"/>
  <path class="cls-2" d="m988.96,428.76l-.29-9.89c-4,3.96-8.07,6.81-12.19,8.57-4.13,1.76-8.46,2.64-13,2.64-4.2,0-7.79-.54-10.77-1.61-2.98-1.07-5.43-2.55-7.36-4.43-1.93-1.88-3.34-4.09-4.25-6.63-.9-2.54-1.35-5.3-1.35-8.28,0-7.37,2.75-13.15,8.24-17.32,5.49-4.17,13.61-6.26,24.35-6.26h15.23v-6.45c0-4.35-1.39-7.82-4.17-10.44-2.78-2.61-7.03-3.92-12.74-3.92-4.15,0-8.24.46-12.27,1.39-4.03.93-8.19,2.25-12.49,3.96v-11.5c1.61-.59,3.41-1.16,5.38-1.72,1.98-.56,4.06-1.06,6.26-1.5s4.49-.79,6.88-1.06c2.39-.27,4.81-.4,7.25-.4,4.44,0,8.45.49,12.01,1.46,3.56.98,6.58,2.47,9.05,4.47,2.46,2,4.36,4.52,5.68,7.54,1.32,3.03,1.98,6.59,1.98,10.69v50.68h-11.43Zm-1.39-33.47h-16.19c-3.17,0-5.91.32-8.2.95-2.3.64-4.17,1.54-5.64,2.71s-2.55,2.58-3.26,4.21c-.71,1.64-1.06,3.48-1.06,5.53,0,1.42.22,2.77.66,4.06.44,1.29,1.15,2.44,2.12,3.44.98,1,2.25,1.79,3.81,2.38,1.56.59,3.47.88,5.71.88,2.93,0,6.29-.89,10.07-2.67,3.78-1.78,7.77-4.6,11.97-8.46v-13.04Z"/>
  <path class="cls-2" d="m1069.95,583.7c0,2.59-.44,4.91-1.32,6.96s-2.08,3.87-3.59,5.46c-1.51,1.59-3.27,2.94-5.27,4.07-2,1.12-4.14,2.05-6.41,2.78-2.27.73-4.6,1.27-7,1.61-2.39.34-4.74.51-7.03.51-4.98,0-9.56-.22-13.73-.66-4.17-.44-8.26-1.15-12.27-2.12v-11.72c4.3,1.22,8.57,2.15,12.82,2.78,4.25.63,8.47.95,12.67.95,6.1,0,10.62-.83,13.55-2.49,2.93-1.66,4.39-4.03,4.39-7.1,0-1.32-.23-2.5-.7-3.55-.46-1.05-1.31-2.05-2.53-3-1.22-.95-3.11-1.94-5.68-2.97-2.56-1.03-6.07-2.2-10.51-3.52-3.32-.98-6.38-2.09-9.19-3.33-2.81-1.25-5.24-2.72-7.29-4.43-2.05-1.71-3.66-3.71-4.83-6.01-1.17-2.29-1.76-5-1.76-8.13,0-2.05.48-4.3,1.43-6.74.95-2.44,2.57-4.71,4.87-6.81,2.29-2.1,5.39-3.85,9.3-5.24,3.91-1.39,8.79-2.09,14.65-2.09,2.88,0,6.08.16,9.59.48,3.52.32,7.18.87,10.99,1.65v11.35c-4-.98-7.8-1.7-11.39-2.16-3.59-.46-6.7-.7-9.34-.7-3.17,0-5.85.25-8.02.73-2.17.49-3.93,1.16-5.27,2.01-1.34.86-2.31,1.86-2.89,3-.59,1.15-.88,2.38-.88,3.7s.26,2.52.77,3.59c.51,1.07,1.46,2.11,2.86,3.11,1.39,1,3.33,2,5.82,3,2.49,1,5.74,2.09,9.74,3.26,4.35,1.27,8.01,2.6,10.99,3.99,2.98,1.39,5.39,2.94,7.25,4.65,1.86,1.71,3.19,3.64,3.99,5.79.8,2.15,1.21,4.59,1.21,7.32Z"/>
  <path class="cls-2" d="m1177.86,778.76h-17.5l-34.28-39.4v39.4h-12.74v-103.49h12.74v63.57l33.03-33.62h16.85l-34.5,33.91,36.4,39.62Z"/>
  <g>
    <path class="cls-2" d="m1236.77,860.75h-21.75v-10.47h34.64v92.87h21.9v10.62h-58.96v-10.62h24.17v-82.4Z"/>
    <path class="cls-2" d="m1359.59,880.23l-25.05,65.77c-2.59,6.69-5.26,12.45-8.02,17.29s-5.77,8.8-9.04,11.9c-3.27,3.1-6.86,5.38-10.77,6.85-3.91,1.46-8.28,2.2-13.11,2.2-1.27,0-2.42-.03-3.44-.07-1.03-.05-2.15-.12-3.37-.22v-11.57c1.07.15,2.25.28,3.52.4,1.27.12,2.61.18,4.03.18,2.34,0,4.53-.34,6.55-1.03,2.03-.68,3.94-1.79,5.75-3.33,1.81-1.54,3.54-3.53,5.2-5.97,1.66-2.44,3.27-5.4,4.83-8.86l-29.37-73.54h14.5l18.6,48.63,3.74,11.43,4.25-11.72,17.21-48.34h13.99Z"/>
  </g>
</svg>