<?xml version="1.0" encoding="UTF-8"?>
<svg id="_レイヤー_4" data-name="レイヤー 4" xmlns="http://www.w3.org/2000/svg" viewBox="0 0 1920 1080">
  <defs>
    <style>
      .cls-1 {
        fill: #099;
      }

      .cls-2 {
        fill: #fff;
      }

      .cls-3 {
        fill: #c36;
      }

      .cls-4 {
        fill: #369;
      }

      .cls-5 {
        fill: #003;
      }

      .cls-6 {
        fill: #969;
      }

      .cls-7 {
        fill: none;
      }
    </style>
  </defs>
  <rect class="cls-7" x="710" y="290" width="500" height="500"/>
  <circle class="cls-7" cx="960" cy="540" r="250"/>
  <rect class="cls-5" x="735" y="315" width="450" height="100"/>
  <rect class="cls-5" x="692.5" y="535" width="360" height="100" transform="translate(287.5 1457.5) rotate(-90)"/>
  <rect class="cls-3" x="922.5" y="427.5" width="250" height="75" rx="30" ry="30"/>
  <rect class="cls-6" x="922.5" y="515" width="250" height="75" rx="30" ry="30"/>
  <rect class="cls-4" x="922.5" y="602.5" width="250" height="75" rx="30" ry="30"/>
  <rect class="cls-1" x="923" y="690" width="250" height="75" rx="30" ry="30"/>
  <path class="cls-2" d="m974.48,484.38l-.15-4.94c-2,1.98-4.03,3.41-6.1,4.28-2.06.88-4.23,1.32-6.5,1.32-2.1,0-3.89-.27-5.38-.81-1.49-.54-2.72-1.28-3.68-2.22-.96-.94-1.67-2.04-2.12-3.31-.45-1.27-.68-2.65-.68-4.14,0-3.69,1.37-6.57,4.12-8.66,2.75-2.09,6.81-3.13,12.18-3.13h7.62v-3.22c0-2.17-.7-3.91-2.09-5.22-1.39-1.31-3.52-1.96-6.37-1.96-2.08,0-4.12.23-6.13.7-2.01.46-4.1,1.12-6.24,1.98v-5.75c.81-.29,1.7-.58,2.69-.86.99-.28,2.03-.53,3.13-.75s2.25-.4,3.44-.53c1.2-.13,2.4-.2,3.63-.2,2.22,0,4.22.24,6.01.73,1.78.49,3.29,1.23,4.52,2.23,1.23,1,2.18,2.26,2.84,3.77.66,1.51.99,3.3.99,5.35v25.34h-5.71Zm-.7-16.74h-8.09c-1.59,0-2.95.16-4.1.48-1.15.32-2.09.77-2.82,1.35s-1.28,1.29-1.63,2.11c-.35.82-.53,1.74-.53,2.76,0,.71.11,1.39.33,2.03.22.65.57,1.22,1.06,1.72.49.5,1.12.9,1.9,1.19.78.29,1.73.44,2.86.44,1.46,0,3.14-.45,5.04-1.34,1.89-.89,3.89-2.3,5.99-4.23v-6.52Z"/>
  <path class="cls-2" d="m1014.97,561.85c0,1.29-.22,2.45-.66,3.48s-1.04,1.94-1.79,2.73c-.76.79-1.64,1.47-2.64,2.03-1,.56-2.07,1.03-3.2,1.39-1.14.37-2.3.63-3.5.81-1.2.17-2.37.26-3.52.26-2.49,0-4.78-.11-6.87-.33-2.09-.22-4.13-.57-6.13-1.06v-5.86c2.15.61,4.28,1.07,6.41,1.39,2.12.32,4.24.48,6.34.48,3.05,0,5.31-.42,6.77-1.25,1.46-.83,2.2-2.01,2.2-3.55,0-.66-.12-1.25-.35-1.78-.23-.52-.65-1.03-1.26-1.5-.61-.48-1.56-.97-2.84-1.48-1.28-.51-3.03-1.1-5.25-1.76-1.66-.49-3.19-1.04-4.6-1.67-1.4-.62-2.62-1.36-3.64-2.22-1.03-.85-1.83-1.85-2.42-3-.59-1.15-.88-2.5-.88-4.06,0-1.03.24-2.15.71-3.37.48-1.22,1.29-2.36,2.44-3.41,1.15-1.05,2.7-1.92,4.65-2.62,1.95-.7,4.39-1.04,7.32-1.04,1.44,0,3.04.08,4.8.24,1.76.16,3.59.43,5.49.82v5.68c-2-.49-3.9-.85-5.69-1.08-1.79-.23-3.35-.35-4.67-.35-1.59,0-2.92.12-4.01.37-1.09.24-1.97.58-2.64,1.01-.67.43-1.15.93-1.45,1.5-.29.57-.44,1.19-.44,1.85s.13,1.26.38,1.79c.26.54.73,1.06,1.43,1.56.7.5,1.67,1,2.91,1.5,1.25.5,2.87,1.04,4.87,1.63,2.17.64,4,1.3,5.49,2,1.49.7,2.7,1.47,3.63,2.33.93.85,1.59,1.82,2,2.89.4,1.07.6,2.29.6,3.66Z"/>
  <path class="cls-2" d="m1068.93,659.38h-8.75l-17.14-19.7v19.7h-6.37v-51.75h6.37v31.79l16.52-16.81h8.42l-17.25,16.96,18.2,19.81Z"/>
  <g>
    <path class="cls-2" d="m1098.38,700.37h-10.88v-5.24h17.32v46.44h10.95v5.31h-29.48v-5.31h12.08v-41.2Z"/>
    <path class="cls-2" d="m1159.8,710.11l-12.52,32.89c-1.29,3.35-2.63,6.23-4.01,8.64s-2.89,4.4-4.52,5.95c-1.64,1.55-3.43,2.69-5.38,3.42-1.95.73-4.14,1.1-6.56,1.1-.64,0-1.21-.01-1.72-.04-.51-.02-1.07-.06-1.68-.11v-5.79c.54.07,1.12.14,1.76.2.63.06,1.31.09,2.01.09,1.17,0,2.26-.17,3.28-.51,1.01-.34,1.97-.9,2.88-1.67.9-.77,1.77-1.76,2.6-2.98.83-1.22,1.64-2.7,2.42-4.43l-14.69-36.77h7.25l9.3,24.32,1.87,5.71,2.12-5.86,8.61-24.17h6.99Z"/>
  </g>
</svg>